<?xml version="1.0" standalone="no"?>
<!DOCTYPE svg PUBLIC "-//W3C//DTD SVG 20010904//EN"
 "http://www.w3.org/TR/2001/REC-SVG-20010904/DTD/svg10.dtd">
<svg version="1.0" xmlns="http://www.w3.org/2000/svg"
 width="512.000000pt" height="512.000000pt" viewBox="0 0 512.000000 512.000000"
 preserveAspectRatio="xMidYMid meet">
<metadata>
Created by potrace 1.14, written by Peter Selinger 2001-2017
</metadata>
<g transform="translate(0.000000,512.000000) scale(0.100000,-0.100000)"
fill="#000000" stroke="none">
<path d="M2255 5075 c-168 -26 -228 -38 -327 -64 -83 -21 -262 -80 -320 -105
-21 -9 -41 -17 -45 -18 -26 -5 -284 -144 -368 -198 -280 -182 -550 -447 -732
-720 -46 -69 -136 -219 -139 -230 0 -3 -21 -48 -47 -100 -82 -169 -166 -421
-191 -574 -3 -16 -10 -52 -15 -80 -31 -155 -44 -441 -28 -631 36 -443 192
-873 455 -1250 31 -44 58 -82 62 -85 3 -3 23 -27 45 -55 101 -127 305 -328
387 -383 13 -8 28 -20 33 -26 38 -42 295 -200 440 -270 238 -115 556 -210 778
-232 29 -3 72 -8 97 -11 105 -12 444 -5 560 12 400 59 770 200 1080 413 84 58
216 160 261 202 131 122 238 238 350 378 55 69 175 267 238 393 265 532 334
1157 190 1725 -17 65 -31 124 -33 129 -11 46 -91 257 -109 290 -6 11 -12 22
-13 25 -1 5 -10 30 -19 53 -13 33 -152 275 -165 287 -3 3 -25 34 -49 69 -24
35 -50 71 -57 80 -218 272 -437 469 -702 629 -179 108 -470 235 -612 267 -8 2
-31 9 -50 15 -45 13 -213 47 -277 55 -26 4 -75 10 -108 15 -88 12 -477 9 -570
-5z"/>
</g>
</svg>
